<svg id="SvgjsSvg1012" width="288" height="288" xmlns="http://www.w3.org/2000/svg" version="1.1" xmlns:xlink="http://www.w3.org/1999/xlink" xmlns:svgjs="http://svgjs.com/svgjs"><defs id="SvgjsDefs1013"></defs><g id="SvgjsG1014"><svg xmlns="http://www.w3.org/2000/svg" width="288" height="288" enable-background="new 0 0 512 512" viewBox="0 0 512 512"><path d="M145.606,182.618c-1.882,0-3.779-0.588-5.399-1.806c-3.974-2.985-4.775-8.627-1.79-12.601L249.17,20.786
				c1.7-2.263,4.366-3.594,7.196-3.594c0,0,0.001,0,0.001,0c2.831,0,5.496,1.332,7.196,3.596l110.686,147.426
				c2.984,3.975,2.182,9.616-1.794,12.601c-3.972,2.983-9.615,2.183-12.601-1.794L256.364,41.179L152.809,179.023
				C151.04,181.377,148.339,182.617,145.606,182.618z" fill="#ffffff" class="color000 svgShape"></path><path d="M256.366,494.293c-4.971,0-9-4.029-9-9V26.192c0-4.971,4.029-9,9-9s9,4.029,9,9v459.101
				C265.366,490.264,261.337,494.293,256.366,494.293z" fill="#ffffff" class="color000 svgShape"></path></svg></g></svg>