<svg id="visual" viewBox="0 0 1920 1080" width="1920" height="1080" xmlns="http://www.w3.org/2000/svg" xmlns:xlink="http://www.w3.org/1999/xlink" version="1.1"><rect width="1920" height="1080" fill="#001217"></rect><g><g transform="translate(1777 923)"><path d="M37 -41C49.8 -33.5 63.1 -23.5 67.5 -10.1C72 3.2 67.7 19.9 58.1 30.7C48.4 41.4 33.5 46.3 19.5 49.6C5.5 52.9 -7.5 54.7 -21.3 52.3C-35 50 -49.4 43.4 -55.9 32.3C-62.3 21.1 -60.7 5.4 -54.4 -6.1C-48.2 -17.5 -37.4 -24.6 -27.5 -32.7C-17.7 -40.7 -8.9 -49.8 1.6 -51.8C12.2 -53.8 24.3 -48.6 37 -41Z" stroke="#00202A" fill="none" stroke-width="4"></path></g><g transform="translate(361 831)"><path d="M9.5 -15.5C12.4 -8.8 15.2 -6 16 -2.6C16.9 0.8 16 4.7 13.7 7.2C11.4 9.6 7.8 10.5 4 12.6C0.2 14.7 -3.7 17.9 -9.9 19.1C-16.1 20.4 -24.6 19.7 -27.4 15.5C-30.2 11.3 -27.3 3.5 -24.8 -3.3C-22.3 -10.1 -20.2 -15.9 -16.2 -22.4C-12.1 -28.9 -6.1 -36.2 -1.4 -34.5C3.2 -32.8 6.5 -22.2 9.5 -15.5Z" stroke="#00202A" fill="none" stroke-width="4"></path></g><g transform="translate(562 857)"><path d="M17.5 -23.2C24.2 -15.2 32.3 -11.2 37.7 -3.3C43 4.5 45.5 16.1 41.7 25.4C37.9 34.7 27.8 41.7 18.3 41.3C8.7 41 -0.3 33.2 -6.5 27C-12.7 20.8 -16.1 16 -24.1 10.1C-32 4.2 -44.4 -2.9 -43 -7C-41.6 -11.1 -26.4 -12.2 -16.9 -19.7C-7.4 -27.2 -3.7 -41.2 0.8 -42.1C5.4 -43.1 10.7 -31.2 17.5 -23.2Z" stroke="#00202A" fill="none" stroke-width="4"></path></g><g transform="translate(178 871)"><path d="M35.4 -41.6C45.6 -33.7 53.2 -22.2 53.1 -11.1C53 0 45 10.7 37.2 19C29.5 27.4 21.9 33.4 14 34.7C6 36.1 -2.3 32.7 -9.3 28.8C-16.2 24.8 -21.8 20.3 -26.7 14.2C-31.7 8.1 -36.1 0.5 -37.5 -9.2C-38.8 -18.8 -37.1 -30.5 -30.4 -39C-23.6 -47.5 -11.8 -52.7 0.4 -53.2C12.6 -53.7 25.3 -49.4 35.4 -41.6Z" stroke="#00202A" fill="none" stroke-width="4"></path></g><g transform="translate(1396 948)"><path d="M28.1 -36.5C35 -27.7 38.3 -17.5 40.7 -6.8C43.1 4 44.6 15.3 42 28.2C39.3 41.1 32.4 55.6 22.8 56.5C13.1 57.4 0.7 44.8 -12.8 38.4C-26.3 32.1 -40.8 32 -48.1 25.1C-55.3 18.1 -55.3 4.2 -53.6 -10.2C-52 -24.6 -48.7 -39.4 -39.5 -47.8C-30.3 -56.1 -15.2 -58 -2.3 -55.3C10.6 -52.6 21.2 -45.2 28.1 -36.5Z" stroke="#00202A" fill="none" stroke-width="4"></path></g><g transform="translate(135 266)"><path d="M30.9 -35.3C37.5 -31.3 38.6 -19.1 36.5 -9.6C34.4 0 29.3 6.9 24.3 12.6C19.3 18.2 14.6 22.6 7.5 28.7C0.4 34.9 -9.1 42.9 -19.3 43.4C-29.6 43.9 -40.6 36.8 -41.8 27.6C-43 18.4 -34.4 6.9 -31.2 -4.4C-27.9 -15.8 -30 -27.1 -25.7 -31.5C-21.4 -35.9 -10.7 -33.4 0.7 -34.3C12.1 -35.1 24.3 -39.2 30.9 -35.3Z" stroke="#00202A" fill="none" stroke-width="4"></path></g><g transform="translate(589 564)"><path d="M5.7 -6.8C7.4 -5.5 8.6 -3.6 9.4 -1.4C10.1 0.9 10.4 3.5 9.2 5.2C8.1 6.9 5.6 7.7 3.2 8.3C0.8 9 -1.4 9.5 -3.5 9C-5.7 8.5 -7.7 7.1 -8.7 5.1C-9.7 3.2 -9.7 0.7 -9.8 -2.3C-9.9 -5.2 -10.1 -8.8 -8.5 -10.2C-6.9 -11.5 -3.4 -10.8 -0.7 -10C2 -9.2 4.1 -8.2 5.7 -6.8Z" stroke="#00202A" fill="none" stroke-width="4"></path></g><g transform="translate(1630 120)"><path d="M28.8 -33.4C37.3 -27.1 44.1 -18.1 47.5 -7.2C50.9 3.8 50.8 16.5 44.4 23.9C38.1 31.2 25.4 33.1 14.6 34.7C3.8 36.2 -5.1 37.4 -14.7 35.9C-24.2 34.3 -34.4 30 -43 21.7C-51.7 13.3 -58.7 0.8 -54.8 -7.6C-50.8 -16 -35.8 -20.4 -24.8 -26.1C-13.8 -31.9 -6.9 -39.1 1.6 -41C10.1 -42.9 20.3 -39.6 28.8 -33.4Z" stroke="#00202A" fill="none" stroke-width="4"></path></g><g transform="translate(1435 768)"><path d="M24.2 -24C32.9 -21.6 42.5 -15.4 44.4 -7.4C46.3 0.6 40.5 10.3 33.4 16C26.2 21.7 17.7 23.4 10.8 23.2C3.8 22.9 -1.5 20.8 -9 20C-16.5 19.3 -26.3 20.1 -27.9 16.5C-29.4 13 -22.6 5.1 -19.9 -2.3C-17.2 -9.8 -18.6 -16.8 -15.9 -20.2C-13.3 -23.6 -6.6 -23.5 0.6 -24.2C7.8 -24.9 15.6 -26.3 24.2 -24Z" stroke="#00202A" fill="none" stroke-width="4"></path></g><g transform="translate(785 610)"><path d="M5.5 -6.8C8 -4.5 11.5 -3.6 12.5 -1.7C13.4 0.2 11.8 3 10.2 6C8.6 9 7.1 12.1 5 12.3C2.8 12.5 0.1 9.7 -2.1 8C-4.4 6.2 -6.3 5.5 -7.7 4C-9.1 2.5 -10 0.3 -10.4 -2.6C-10.9 -5.6 -10.9 -9.3 -9 -11.7C-7.2 -14.1 -3.6 -15.3 -1.1 -14C1.5 -12.8 3 -9.1 5.5 -6.8Z" stroke="#00202A" fill="none" stroke-width="4"></path></g><g transform="translate(1152 630)"><path d="M16.9 -23.3C19.6 -17.8 18 -10.3 19 -3.6C19.9 3.2 23.3 9.4 22.8 16C22.3 22.6 17.9 29.8 11.6 32.1C5.4 34.5 -2.7 32.1 -8.5 28C-14.4 23.9 -18 18.2 -22.2 12.2C-26.5 6.2 -31.4 -0.1 -30.8 -5.8C-30.3 -11.5 -24.2 -16.6 -18.2 -21.5C-12.1 -26.4 -6.1 -31.1 0.5 -31.7C7.1 -32.3 14.1 -28.8 16.9 -23.3Z" stroke="#00202A" fill="none" stroke-width="4"></path></g><g transform="translate(1388 606)"><path d="M20.4 -22.1C27.5 -18.4 35.1 -12.9 38.7 -5C42.2 2.9 41.8 13.4 36.8 20.6C31.8 27.8 22.4 31.8 12.3 36.9C2.1 41.9 -8.8 48.1 -19 46.8C-29.2 45.4 -38.6 36.6 -38.7 26.9C-38.8 17.3 -29.5 6.9 -27.1 -4.5C-24.7 -15.8 -29.3 -28.1 -25.9 -32.5C-22.6 -36.9 -11.3 -33.6 -2.3 -30.8C6.6 -28 13.3 -25.9 20.4 -22.1Z" stroke="#00202A" fill="none" stroke-width="4"></path></g><g transform="translate(1761 459)"><path d="M33 -39.4C42 -31.7 48 -20.6 50.4 -8.6C52.9 3.4 51.7 16.3 45.9 26.7C40.1 37.1 29.7 45 20.1 43.3C10.5 41.7 1.7 30.5 -8.8 25.9C-19.3 21.3 -31.5 23.3 -38.1 18.7C-44.7 14.1 -45.7 2.9 -44.1 -8C-42.4 -19 -38.2 -29.8 -30.5 -37.7C-22.7 -45.6 -11.3 -50.6 0.3 -51C12 -51.3 24 -47.1 33 -39.4Z" stroke="#00202A" fill="none" stroke-width="4"></path></g><g transform="translate(1221 413)"><path d="M21.1 -21.4C27.3 -19.9 32.3 -13.2 31.7 -7C31.1 -0.8 24.8 5 19.3 8C13.8 11 9 11.2 4.9 11.9C0.9 12.7 -2.3 14 -5.3 13.4C-8.3 12.9 -11.1 10.4 -17.4 6.6C-23.8 2.8 -33.7 -2.5 -34.8 -7.9C-36 -13.3 -28.3 -19 -21 -20.3C-13.8 -21.6 -6.9 -18.6 0.3 -18.9C7.4 -19.3 14.9 -22.9 21.1 -21.4Z" stroke="#00202A" fill="none" stroke-width="4"></path></g><g transform="translate(1258 821)"><path d="M10.5 -11.3C14.1 -9.5 17.8 -6.7 18.3 -3.3C18.8 0 16 3.8 13.4 7.3C10.8 10.7 8.5 13.9 5.4 15.2C2.2 16.6 -1.8 16.2 -4.9 14.6C-8 12.9 -10.2 10.1 -10.8 7.2C-11.3 4.3 -10.1 1.4 -9.4 -1.5C-8.8 -4.5 -8.7 -7.3 -7.2 -9.5C-5.7 -11.7 -2.9 -13.2 0.3 -13.5C3.5 -13.9 6.9 -13.1 10.5 -11.3Z" stroke="#00202A" fill="none" stroke-width="4"></path></g><g transform="translate(973 315)"><path d="M32.9 -37.7C43.4 -30.4 53.1 -20.8 55.7 -9.3C58.4 2.2 54 15.4 45 21.4C36.1 27.5 22.6 26.3 11.4 29.8C0.1 33.2 -8.9 41.3 -14.4 39.4C-19.9 37.5 -21.9 25.6 -27.4 15.9C-32.9 6.2 -41.9 -1.4 -44 -11C-46.1 -20.5 -41.3 -32 -32.8 -39.7C-24.4 -47.3 -12.2 -51 -0.5 -50.5C11.2 -49.9 22.4 -45 32.9 -37.7Z" stroke="#00202A" fill="none" stroke-width="4"></path></g><g transform="translate(276 648)"><path d="M10.6 -16.4C12 -11.5 10.1 -6.5 12.2 -1.1C14.4 4.2 20.6 9.8 20.1 12.6C19.7 15.5 12.7 15.5 7.7 14.4C2.7 13.3 -0.2 11 -4.4 10.3C-8.5 9.5 -13.9 10.3 -15.6 8.5C-17.4 6.6 -15.6 2.1 -15.2 -3.1C-14.7 -8.2 -15.6 -14 -13.3 -18.7C-11 -23.5 -5.5 -27.3 -0.4 -26.8C4.6 -26.3 9.2 -21.4 10.6 -16.4Z" stroke="#00202A" fill="none" stroke-width="4"></path></g><g transform="translate(1046 463)"><path d="M35.3 -43.6C45.5 -33.6 53.1 -22.2 55.5 -9.7C57.8 2.8 54.8 16.3 47.4 25.8C40 35.2 28.4 40.5 17 43C5.7 45.4 -5.3 45.1 -15.7 41.9C-26.2 38.7 -36.1 32.6 -38.1 24.3C-40.2 16 -34.4 5.5 -34 -7.6C-33.7 -20.7 -38.7 -36.4 -33.9 -47.4C-29.1 -58.3 -14.6 -64.6 -1 -63.4C12.6 -62.2 25.2 -53.6 35.3 -43.6Z" stroke="#00202A" fill="none" stroke-width="4"></path></g><g transform="translate(1431 401)"><path d="M16.3 -23.1C19.2 -17 18.3 -10.1 21 -2.6C23.7 4.9 29.9 12.9 29.9 21.4C29.9 29.8 23.6 38.8 15.2 41.9C6.7 45.1 -3.9 42.5 -9.9 36.3C-16 30.2 -17.4 20.5 -23.9 12.3C-30.5 4.1 -42.1 -2.7 -44 -10.5C-45.9 -18.3 -38 -27.1 -29.1 -32.1C-20.1 -37.1 -10.1 -38.3 -1.7 -36.3C6.7 -34.3 13.4 -29.2 16.3 -23.1Z" stroke="#00202A" fill="none" stroke-width="4"></path></g><g transform="translate(389 385)"><path d="M18.4 -19.6C23.2 -17.8 26.2 -11.5 24.3 -6.6C22.5 -1.7 15.7 1.7 12.2 6.4C8.8 11.2 8.6 17.2 5.8 20C3 22.7 -2.4 22.1 -5.5 19.2C-8.6 16.3 -9.4 11.1 -12.9 6.7C-16.3 2.2 -22.4 -1.4 -22 -3.9C-21.6 -6.4 -14.7 -7.9 -9.9 -9.7C-5.2 -11.6 -2.6 -13.9 2.1 -16.3C6.7 -18.8 13.5 -21.5 18.4 -19.6Z" stroke="#00202A" fill="none" stroke-width="4"></path></g><g transform="translate(1808 290)"><path d="M7.2 -8.5C8.7 -7.3 8.8 -4.4 8.1 -2.3C7.4 -0.2 5.8 1.1 4.7 2.4C3.6 3.8 3 5.2 1.7 6.4C0.3 7.7 -1.7 8.9 -3.8 8.9C-5.9 8.8 -8.1 7.4 -8.9 5.4C-9.6 3.5 -9 1 -8.6 -1.6C-8.3 -4.3 -8.3 -7.1 -6.9 -8.3C-5.5 -9.5 -2.8 -9 0 -9.1C2.8 -9.1 5.7 -9.6 7.2 -8.5Z" stroke="#00202A" fill="none" stroke-width="4"></path></g><g transform="translate(1180 163)"><path d="M12.6 -14.8C17.5 -10.8 23.5 -8 23 -4.9C22.5 -1.9 15.4 1.5 12.4 7.6C9.4 13.7 10.4 22.5 7.8 25C5.2 27.5 -1 23.7 -7.6 21.2C-14.2 18.7 -21.3 17.5 -25.9 13.2C-30.5 8.8 -32.6 1.4 -31.2 -5.3C-29.8 -12 -24.9 -17.9 -19.1 -21.7C-13.3 -25.5 -6.7 -27.2 -1.4 -25.5C3.8 -23.8 7.6 -18.7 12.6 -14.8Z" stroke="#00202A" fill="none" stroke-width="4"></path></g><g transform="translate(704 98)"><path d="M23.9 -27.6C32.6 -21.2 42.3 -15.2 48.1 -5.1C53.9 4.9 55.7 19.1 50.2 29.3C44.7 39.6 31.8 45.9 21.2 43.4C10.5 40.8 2 29.4 -10.8 26.2C-23.5 23 -40.6 28.1 -50 23.3C-59.5 18.4 -61.5 3.6 -54.9 -5.5C-48.3 -14.6 -33.1 -18 -22.5 -24C-11.9 -30.1 -6 -38.8 0.8 -39.8C7.6 -40.7 15.2 -34 23.9 -27.6Z" stroke="#00202A" fill="none" stroke-width="4"></path></g><g transform="translate(753 861)"><path d="M10.9 -12.7C15.3 -9.3 20.9 -7 22.8 -3C24.8 1 23.1 6.7 19.9 10.9C16.8 15.1 12.1 17.9 7.1 19.8C2.1 21.8 -3.4 23 -8.6 21.8C-13.8 20.7 -18.9 17.2 -19.7 12.8C-20.5 8.4 -17 3 -16.3 -3.2C-15.6 -9.4 -17.6 -16.4 -15.3 -20.2C-13.1 -24 -6.5 -24.5 -1.7 -22.6C3.2 -20.6 6.5 -16.1 10.9 -12.7Z" stroke="#00202A" fill="none" stroke-width="4"></path></g><g transform="translate(792 287)"><path d="M18.7 -17.3C27.5 -14.9 40.1 -12.1 45.6 -4.5C51.1 3.1 49.6 15.4 41.7 19.4C33.8 23.5 19.7 19.3 9 21.9C-1.6 24.5 -8.7 33.9 -12.4 33C-16.2 32.2 -16.6 21 -19.2 12.9C-21.8 4.7 -26.5 -0.4 -27.3 -6.3C-28 -12.3 -24.9 -19.1 -19.7 -22.2C-14.5 -25.2 -7.3 -24.5 -1.1 -23.1C5 -21.7 9.9 -19.7 18.7 -17.3Z" stroke="#00202A" fill="none" stroke-width="4"></path></g><g transform="translate(433 136)"><path d="M22.3 -22.9C29.8 -20.2 37.4 -14.1 38.8 -6.8C40.2 0.6 35.3 9.1 28.8 13.2C22.3 17.3 14.2 17 8.2 16.7C2.1 16.4 -1.8 16.1 -9 16.9C-16.2 17.7 -26.6 19.6 -28.9 16.3C-31.2 13.1 -25.4 4.8 -22.9 -3.1C-20.4 -11 -21.1 -18.5 -17.8 -21.9C-14.6 -25.3 -7.3 -24.5 0 -24.5C7.4 -24.6 14.8 -25.5 22.3 -22.9Z" stroke="#00202A" fill="none" stroke-width="4"></path></g><g transform="translate(1452 83)"><path d="M8.9 -10.2C12.4 -7.6 16.7 -5.7 17.7 -2.7C18.7 0.2 16.3 4.1 13.8 7.7C11.4 11.3 9 14.6 5.5 16.4C2 18.3 -2.5 18.7 -6.2 17.2C-9.9 15.8 -12.9 12.5 -13 9.1C-13 5.7 -10.1 2.2 -10.1 -2.6C-10.2 -7.3 -13.3 -13.4 -12.1 -16.4C-10.9 -19.4 -5.5 -19.3 -1.4 -17.6C2.7 -16 5.4 -12.8 8.9 -10.2Z" stroke="#00202A" fill="none" stroke-width="4"></path></g><g transform="translate(947 985)"><path d="M6 -7.3C7.6 -5.9 8.3 -3.8 8.1 -1.9C7.8 0 6.6 1.5 5.5 2.9C4.4 4.3 3.4 5.5 2.1 6C0.8 6.5 -0.7 6.4 -2 5.8C-3.3 5.2 -4.3 4.1 -4.9 2.9C-5.5 1.7 -5.6 0.3 -5.7 -1.3C-5.7 -2.9 -5.7 -4.9 -4.8 -6.3C-3.8 -7.8 -1.9 -8.7 0.2 -8.9C2.3 -9.1 4.5 -8.6 6 -7.3Z" stroke="#00202A" fill="none" stroke-width="4"></path></g><g transform="translate(117 93)"><path d="M14 -18.1C17.3 -13.8 18.6 -8.7 18.6 -4C18.7 0.7 17.3 5 14.8 7.7C12.2 10.5 8.5 11.7 3 17.8C-2.5 24 -9.6 35.1 -13.6 34.7C-17.5 34.4 -18.2 22.7 -21.3 13.9C-24.4 5.2 -29.8 -0.5 -28.6 -4.7C-27.5 -8.9 -19.7 -11.6 -13.9 -15.4C-8 -19.1 -4 -24 0.7 -24.8C5.3 -25.6 10.6 -22.3 14 -18.1Z" stroke="#00202A" fill="none" stroke-width="4"></path></g><g transform="translate(1646 710)"><path d="M24.1 -22.3C33 -21.3 43.3 -15.3 42.2 -9.3C41 -3.2 28.5 3 22.7 13.1C16.9 23.3 17.8 37.4 13.5 40.5C9.1 43.7 -0.6 35.8 -6.4 28.8C-12.3 21.8 -14.3 15.6 -15.7 10.4C-17.2 5.2 -18 0.9 -20.2 -6.5C-22.4 -14 -26 -24.7 -22.9 -26.8C-19.8 -28.9 -9.9 -22.3 -1.2 -21C7.6 -19.6 15.2 -23.4 24.1 -22.3Z" stroke="#00202A" fill="none" stroke-width="4"></path></g><g transform="translate(986 734)"><path d="M13.8 -15.2C21 -10.4 32.2 -9 33.9 -5.1C35.5 -1.3 27.7 5.1 23.3 14.1C18.9 23.1 17.9 34.8 13.2 36.7C8.5 38.6 0.1 30.8 -8.9 26.6C-17.8 22.4 -27.3 21.8 -30.1 17.2C-32.8 12.7 -28.9 4.1 -26.1 -3.3C-23.3 -10.8 -21.5 -17.2 -17.4 -22.5C-13.2 -27.9 -6.6 -32.2 -1.6 -30.2C3.3 -28.3 6.6 -20 13.8 -15.2Z" stroke="#00202A" fill="none" stroke-width="4"></path></g><g transform="translate(137 511)"><path d="M15 -16.9C18.9 -14.6 21.1 -9.3 20.9 -4.5C20.8 0.3 18.3 4.7 15.5 8.5C12.8 12.4 9.8 15.6 5.7 18.3C1.5 20.9 -3.8 22.9 -7.7 21.4C-11.7 19.9 -14.2 14.8 -16 10.1C-17.8 5.3 -18.8 0.9 -17.4 -2.3C-15.9 -5.5 -11.9 -7.5 -8.6 -9.9C-5.3 -12.4 -2.6 -15.4 1.4 -17.1C5.5 -18.8 11.1 -19.3 15 -16.9Z" stroke="#00202A" fill="none" stroke-width="4"></path></g><g transform="translate(1564 991)"><path d="M6.3 -5.6C9.4 -5 14 -4.1 16.7 -1.1C19.3 1.8 20.1 7 17.6 9C15 11 9.2 10 4.4 11.5C-0.4 13 -4 16.9 -6.4 16.5C-8.8 16.1 -10 11.3 -12.2 7.2C-14.5 3.1 -17.7 -0.3 -17.3 -3.1C-16.9 -5.9 -12.7 -8.1 -9.2 -8.6C-5.7 -9.2 -2.9 -8.1 -0.6 -7.4C1.6 -6.7 3.3 -6.2 6.3 -5.6Z" stroke="#00202A" fill="none" stroke-width="4"></path></g><g transform="translate(1381 229)"><path d="M2.3 -2.7C3.2 -2 4.1 -1.5 4.4 -0.7C4.6 0.1 4.1 1.1 3.6 2.2C3.1 3.4 2.7 4.7 1.7 5.3C0.8 5.8 -0.6 5.7 -1.7 5.1C-2.7 4.5 -3.5 3.5 -4.1 2.4C-4.8 1.3 -5.3 0.1 -5.3 -1C-5.2 -2.2 -4.5 -3.3 -3.5 -4C-2.5 -4.7 -1.3 -4.8 -0.3 -4.5C0.7 -4.2 1.5 -3.4 2.3 -2.7Z" stroke="#00202A" fill="none" stroke-width="4"></path></g><g transform="translate(739 446)"><path d="M12 -16C17.4 -9.7 25.1 -7.7 29.5 -2.3C33.9 3.1 35 12 30.8 16.6C26.7 21.2 17.3 21.6 8.7 25.3C0.1 28.9 -7.8 36 -11.2 33.5C-14.6 31.1 -13.5 19.1 -14.6 11.3C-15.7 3.5 -19 -0.2 -21.3 -6.6C-23.5 -13 -24.8 -22 -21.1 -28.6C-17.4 -35.3 -8.7 -39.5 -2.7 -36.2C3.3 -33 6.5 -22.3 12 -16Z" stroke="#00202A" fill="none" stroke-width="4"></path></g><g transform="translate(1128 964)"><path d="M13.3 -19.7C18.1 -11.8 23.5 -8.4 25 -3.8C26.5 0.8 24.1 6.6 20.2 10.2C16.4 13.9 11.2 15.2 6 17.7C0.7 20.2 -4.6 23.8 -12.3 24.9C-19.9 25.9 -29.8 24.4 -33.8 18.9C-37.8 13.3 -35.8 3.7 -32 -3.4C-28.1 -10.6 -22.3 -15.2 -16.7 -22.9C-11.1 -30.7 -5.5 -41.7 -0.6 -40.9C4.2 -40.1 8.5 -27.6 13.3 -19.7Z" stroke="#00202A" fill="none" stroke-width="4"></path></g><g transform="translate(524 265)"><path d="M6.3 -7.8C7.7 -6.4 7.9 -3.9 8.5 -1.4C9.2 1.2 10.1 3.8 9.3 5.6C8.6 7.5 6 8.5 3.9 8.2C1.8 7.9 0 6.3 -1.7 5.3C-3.5 4.4 -5.3 4.3 -7 3.2C-8.6 2 -10.2 0 -10.3 -2.3C-10.5 -4.6 -9.3 -7.1 -7.4 -8.4C-5.4 -9.8 -2.7 -9.9 -0.1 -9.7C2.5 -9.6 4.9 -9.2 6.3 -7.8Z" stroke="#00202A" fill="none" stroke-width="4"></path></g><g transform="translate(1819 102)"><path d="M8.7 -10.8C9.9 -9.3 8.6 -5.3 7.8 -2.4C7.1 0.4 6.9 2.1 6.2 3.7C5.5 5.4 4.3 6.9 2.3 8.6C0.3 10.4 -2.4 12.3 -4.4 11.7C-6.4 11.2 -7.7 8.2 -8.7 5.5C-9.6 2.8 -10.3 0.4 -10.2 -2.1C-10.1 -4.6 -9.3 -7.4 -7.5 -8.8C-5.6 -10.2 -2.8 -10.4 0.5 -10.9C3.7 -11.5 7.4 -12.4 8.7 -10.8Z" stroke="#00202A" fill="none" stroke-width="4"></path></g><g transform="translate(1609 518)"><path d="M37.9 -42.3C48 -36.8 54.2 -23.7 57.7 -9.4C61.2 5 62 20.6 53.9 27.9C45.9 35.1 28.9 33.9 14.4 38.8C-0.1 43.7 -12 54.7 -23.9 55C-35.7 55.2 -47.5 44.8 -52.8 32.2C-58 19.6 -56.6 4.9 -51.5 -6.5C-46.5 -18 -37.7 -26.2 -28.5 -31.9C-19.3 -37.6 -9.6 -40.8 2.2 -43.4C13.9 -46 27.9 -47.9 37.9 -42.3Z" stroke="#00202A" fill="none" stroke-width="4"></path></g><g transform="translate(955 111)"><path d="M14.4 -16.5C17.6 -14.5 18.4 -8.9 17.9 -4.2C17.5 0.5 15.9 4.4 13.6 7.4C11.3 10.3 8.3 12.3 4.8 13.9C1.3 15.5 -2.6 16.8 -6.2 15.9C-9.8 15.1 -13.1 12.3 -15.1 8.7C-17.1 5.2 -17.9 0.9 -16 -1.6C-14.1 -4.2 -9.5 -5 -6.4 -7C-3.3 -9 -1.6 -12.1 2 -14.5C5.6 -16.9 11.2 -18.5 14.4 -16.5Z" stroke="#00202A" fill="none" stroke-width="4"></path></g><g transform="translate(1530 277)"><path d="M28.7 -33.4C33.8 -29.9 32.1 -17.7 36.9 -4.5C41.6 8.7 52.7 22.7 50.5 31.6C48.3 40.4 32.8 44 19.3 45.7C5.9 47.3 -5.6 47.1 -16.9 44C-28.1 40.9 -39.2 35 -46.8 25.3C-54.4 15.7 -58.6 2.3 -55.9 -9.3C-53.2 -20.9 -43.6 -30.7 -33.1 -33.2C-22.7 -35.7 -11.3 -30.8 0.2 -31.1C11.8 -31.4 23.6 -36.8 28.7 -33.4Z" stroke="#00202A" fill="none" stroke-width="4"></path></g><g transform="translate(117 707)"><path d="M6.2 -7.7C7 -6.7 5.9 -3.8 5.9 -1.4C5.8 0.9 6.8 2.7 6.7 4.7C6.5 6.6 5.2 8.7 3.2 9.8C1.2 11 -1.5 11.2 -3.9 10.4C-6.4 9.7 -8.6 8 -8.7 5.9C-8.9 3.9 -7 1.5 -6.5 -1.2C-6.1 -3.8 -7.1 -6.8 -6.3 -7.8C-5.4 -8.8 -2.7 -8 0 -8C2.7 -8 5.4 -8.8 6.2 -7.7Z" stroke="#00202A" fill="none" stroke-width="4"></path></g><g transform="translate(437 653)"><path d="M6.3 -7.8C7.2 -6.7 6.3 -3.8 6.6 -1.3C6.8 1.2 8.1 3.3 7.5 4.3C6.9 5.3 4.3 5.1 2.3 5.3C0.3 5.6 -1.1 6.4 -2.5 6.2C-4 6 -5.3 5 -7 3.4C-8.6 1.9 -10.5 -0.2 -10.2 -1.8C-9.9 -3.4 -7.4 -4.6 -5.3 -5.5C-3.3 -6.4 -1.6 -7.1 0.5 -7.7C2.7 -8.3 5.4 -8.9 6.3 -7.8Z" stroke="#00202A" fill="none" stroke-width="4"></path></g><g transform="translate(1812 766)"><path d="M3.6 -3.7C5.5 -2.7 8.5 -2.4 9.9 -0.8C11.2 0.7 10.9 3.4 9.4 4.9C7.9 6.5 5.3 6.9 3 7.3C0.7 7.8 -1.2 8.2 -3.4 8C-5.7 7.8 -8.2 7 -8.6 5.4C-9 3.8 -7.3 1.4 -6.7 -1.1C-6.2 -3.6 -6.8 -6.2 -5.9 -7.5C-5 -8.8 -2.5 -8.7 -0.8 -7.7C0.8 -6.7 1.7 -4.8 3.6 -3.7Z" stroke="#00202A" fill="none" stroke-width="4"></path></g><g transform="translate(303 230)"><path d="M17.8 -19.5C23 -16.9 26.9 -11.2 29.6 -4C32.3 3.1 33.7 11.7 30.6 18.2C27.5 24.7 19.9 29.2 12.6 29.9C5.2 30.5 -1.8 27.4 -8.7 24.6C-15.7 21.8 -22.5 19.4 -25.4 14.6C-28.3 9.8 -27.3 2.6 -26.2 -4.8C-25.1 -12.2 -24 -19.7 -19.6 -22.4C-15.2 -25.1 -7.6 -22.9 -0.6 -22.2C6.3 -21.4 12.6 -22 17.8 -19.5Z" stroke="#00202A" fill="none" stroke-width="4"></path></g><g transform="translate(665 729)"><path d="M11.4 -16.2C12.8 -12.5 10.4 -7 9.5 -3C8.6 0.9 9.2 3.3 8.8 6.2C8.5 9.1 7.1 12.5 4 15.6C0.9 18.7 -4 21.5 -7.7 20.4C-11.4 19.4 -13.9 14.4 -13.9 10.1C-13.8 5.8 -11.2 2.2 -11.2 -2.7C-11.2 -7.6 -13.9 -13.6 -12.4 -17.3C-11 -20.9 -5.5 -22.2 -0.2 -21.9C5.1 -21.7 10.1 -19.9 11.4 -16.2Z" stroke="#00202A" fill="none" stroke-width="4"></path></g><g transform="translate(413 996)"><path d="M32.4 -42.9C36.9 -34.9 32 -19.8 29.4 -9C26.9 1.9 26.6 8.6 24.1 14.7C21.5 20.9 16.6 26.6 8.9 33.2C1.1 39.9 -9.5 47.6 -16.9 45.4C-24.3 43.2 -28.5 31 -31.8 20.6C-35.2 10.2 -37.7 1.5 -39.8 -10.6C-41.9 -22.7 -43.5 -38.3 -36.8 -45.9C-30.1 -53.5 -15.1 -53.1 -0.6 -52.4C14 -51.8 27.9 -50.8 32.4 -42.9Z" stroke="#00202A" fill="none" stroke-width="4"></path></g><g transform="translate(653 999)"><path d="M31.4 -31C41.2 -29.2 49.8 -19.8 50.8 -9.6C51.7 0.5 45 11.3 37.4 18.9C29.8 26.5 21.3 30.9 12.4 34.2C3.5 37.5 -5.9 39.6 -13.4 36.9C-21 34.1 -26.8 26.5 -29 18.7C-31.2 10.9 -29.8 2.9 -29.3 -6.1C-28.8 -15.1 -29.2 -25.2 -24.5 -27.8C-19.7 -30.5 -9.9 -25.7 0.5 -26.3C10.8 -26.8 21.7 -32.8 31.4 -31Z" stroke="#00202A" fill="none" stroke-width="4"></path></g></g></svg>