<svg id="visual" viewBox="0 0 1920 1080" width="1920" height="1080" xmlns="http://www.w3.org/2000/svg" xmlns:xlink="http://www.w3.org/1999/xlink" version="1.1"><path d="M0 109L64 105.3C128 101.7 256 94.3 384 92.5C512 90.7 640 94.3 768 92.7C896 91 1024 84 1152 78.7C1280 73.3 1408 69.7 1536 69.7C1664 69.7 1792 73.3 1856 75.2L1920 77L1920 0L1856 0C1792 0 1664 0 1536 0C1408 0 1280 0 1152 0C1024 0 896 0 768 0C640 0 512 0 384 0C256 0 128 0 64 0L0 0Z" fill="#1e4451"></path><path d="M0 152L64 146.7C128 141.3 256 130.7 384 127.2C512 123.7 640 127.3 768 127.3C896 127.3 1024 123.7 1152 121.8C1280 120 1408 120 1536 120C1664 120 1792 120 1856 120L1920 120L1920 75L1856 73.2C1792 71.3 1664 67.7 1536 67.7C1408 67.7 1280 71.3 1152 76.7C1024 82 896 89 768 90.7C640 92.3 512 88.7 384 90.5C256 92.3 128 99.7 64 103.3L0 107Z" fill="#1a3c47"></path><path d="M0 185L64 181.3C128 177.7 256 170.3 384 168.5C512 166.7 640 170.3 768 168.5C896 166.7 1024 159.3 1152 155.7C1280 152 1408 152 1536 152C1664 152 1792 152 1856 152L1920 152L1920 118L1856 118C1792 118 1664 118 1536 118C1408 118 1280 118 1152 119.8C1024 121.7 896 125.3 768 125.3C640 125.3 512 121.7 384 125.2C256 128.7 128 139.3 64 144.7L0 150Z" fill="#17343e"></path><path d="M0 217L64 215.2C128 213.3 256 209.7 384 209.7C512 209.7 640 213.3 768 209.8C896 206.3 1024 195.7 1152 192C1280 188.3 1408 191.7 1536 191.7C1664 191.7 1792 188.3 1856 186.7L1920 185L1920 150L1856 150C1792 150 1664 150 1536 150C1408 150 1280 150 1152 153.7C1024 157.3 896 164.7 768 166.5C640 168.3 512 164.7 384 166.5C256 168.3 128 175.7 64 179.3L0 183Z" fill="#132c35"></path><path d="M0 271L64 269.2C128 267.3 256 263.7 384 267.3C512 271 640 282 768 283.8C896 285.7 1024 278.3 1152 276.5C1280 274.7 1408 278.3 1536 276.5C1664 274.7 1792 267.3 1856 263.7L1920 260L1920 183L1856 184.7C1792 186.3 1664 189.7 1536 189.7C1408 189.7 1280 186.3 1152 190C1024 193.7 896 204.3 768 207.8C640 211.3 512 207.7 384 207.7C256 207.7 128 211.3 64 213.2L0 215Z" fill="#10252c"></path><path d="M0 336L64 334.2C128 332.3 256 328.7 384 328.7C512 328.7 640 332.3 768 330.5C896 328.7 1024 321.3 1152 317.7C1280 314 1408 314 1536 314C1664 314 1792 314 1856 314L1920 314L1920 258L1856 261.7C1792 265.3 1664 272.7 1536 274.5C1408 276.3 1280 272.7 1152 274.5C1024 276.3 896 283.7 768 281.8C640 280 512 269 384 265.3C256 261.7 128 265.3 64 267.2L0 269Z" fill="#0c1e23"></path><path d="M0 379L64 377.2C128 375.3 256 371.7 384 371.7C512 371.7 640 375.3 768 373.5C896 371.7 1024 364.3 1152 364.3C1280 364.3 1408 371.7 1536 371.7C1664 371.7 1792 364.3 1856 360.7L1920 357L1920 312L1856 312C1792 312 1664 312 1536 312C1408 312 1280 312 1152 315.7C1024 319.3 896 326.7 768 328.5C640 330.3 512 326.7 384 326.7C256 326.7 128 330.3 64 332.2L0 334Z" fill="#0a1a1e"></path><path d="M0 606L64 593.3C128 580.7 256 555.3 384 562.5C512 569.7 640 609.3 768 620.2C896 631 1024 613 1152 596.8C1280 580.7 1408 566.3 1536 568.2C1664 570 1792 588 1856 597L1920 606L1920 355L1856 358.7C1792 362.3 1664 369.7 1536 369.7C1408 369.7 1280 362.3 1152 362.3C1024 362.3 896 369.7 768 371.5C640 373.3 512 369.7 384 369.7C256 369.7 128 373.3 64 375.2L0 377Z" fill="#0a191d"></path><path d="M0 800L64 796.5C128 793 256 786 384 789.7C512 793.3 640 807.7 768 804C896 800.3 1024 778.7 1152 778.7C1280 778.7 1408 800.3 1536 804C1664 807.7 1792 793.3 1856 786.2L1920 779L1920 604L1856 595C1792 586 1664 568 1536 566.2C1408 564.3 1280 578.7 1152 594.8C1024 611 896 629 768 618.2C640 607.3 512 567.7 384 560.5C256 553.3 128 578.7 64 591.3L0 604Z" fill="#0a181c"></path><path d="M0 887L64 883.3C128 879.7 256 872.3 384 874C512 875.7 640 886.3 768 882.7C896 879 1024 861 1152 861C1280 861 1408 879 1536 882.7C1664 886.3 1792 875.7 1856 870.3L1920 865L1920 777L1856 784.2C1792 791.3 1664 805.7 1536 802C1408 798.3 1280 776.7 1152 776.7C1024 776.7 896 798.3 768 802C640 805.7 512 791.3 384 787.7C256 784 128 791 64 794.5L0 798Z" fill="#0a171b"></path><path d="M0 951L64 945.7C128 940.3 256 929.7 384 928C512 926.3 640 933.7 768 933.7C896 933.7 1024 926.3 1152 928C1280 929.7 1408 940.3 1536 938.5C1664 936.7 1792 922.3 1856 915.2L1920 908L1920 863L1856 868.3C1792 873.7 1664 884.3 1536 880.7C1408 877 1280 859 1152 859C1024 859 896 877 768 880.7C640 884.3 512 873.7 384 872C256 870.3 128 877.7 64 881.3L0 885Z" fill="#09161a"></path><path d="M0 1081L64 1081C128 1081 256 1081 384 1081C512 1081 640 1081 768 1081C896 1081 1024 1081 1152 1081C1280 1081 1408 1081 1536 1081C1664 1081 1792 1081 1856 1081L1920 1081L1920 906L1856 913.2C1792 920.3 1664 934.7 1536 936.5C1408 938.3 1280 927.7 1152 926C1024 924.3 896 931.7 768 931.7C640 931.7 512 924.3 384 926C256 927.7 128 938.3 64 943.7L0 949Z" fill="#091519"></path></svg>